<svg width="207" height="39" viewBox="0 0 207 39" fill="none" xmlns="http://www.w3.org/2000/svg">
<g clip-path="url(#clip0_756_1516)">
<path d="M3.56915 20.4187C3.17539 20.0946 2.85377 19.6918 2.62496 19.236C2.39614 18.7803 2.26519 18.2817 2.24052 17.7724C2.21585 17.263 2.298 16.7541 2.48169 16.2784C2.66539 15.8027 2.94657 15.3707 3.30717 15.0101L7.43513 10.8821C7.66369 10.6536 7.97368 10.5252 8.29691 10.5252C8.62015 10.5252 8.93014 10.6536 9.1587 10.8821L9.81711 11.5405C11.0167 12.7401 10.9978 14.4344 10.8461 15.5754C10.8256 15.7087 10.8273 15.8444 10.8512 15.977L10.8737 16.0408L10.8823 16.0529L10.8874 16.058L10.9099 16.0701C10.9328 16.0816 10.984 16.0913 11.0632 16.0994C11.3356 16.1058 11.6069 16.0613 11.863 15.9684C12.5886 15.7254 13.4849 15.1738 14.3294 14.3293C15.1774 13.4813 15.729 12.585 15.9668 11.8646C16.0606 11.608 16.1056 11.3362 16.0995 11.0631C16.0977 11.0101 16.0872 10.9577 16.0685 10.908L16.0564 10.8856L16.0427 10.8718L15.9789 10.8494C15.8462 10.8255 15.7105 10.8237 15.5773 10.8442C14.4363 10.9959 12.742 11.0148 11.5424 9.81524L10.884 9.15684C10.6557 8.92858 10.5274 8.61908 10.527 8.29627C10.5267 7.97346 10.6545 7.66371 10.8823 7.43499L15.0102 3.30703C15.3708 2.94643 15.8028 2.66525 16.2786 2.48156C16.7543 2.29786 17.2632 2.21571 17.7725 2.24038C18.2819 2.26505 18.7804 2.396 19.2362 2.62482C19.6919 2.85364 20.0948 3.17526 20.4188 3.56902L24.9208 8.90864L25.3293 8.50016C25.6654 8.16406 25.7998 7.52289 25.6654 6.50943C25.5551 5.67522 25.6791 4.70313 26.3944 3.98784C27.3734 3.00885 28.7971 3.12606 29.8692 3.48456C31.0205 3.86719 32.2322 4.65487 33.2887 5.71142C34.3453 6.76797 35.1329 7.97964 35.5156 9.13098C35.8741 10.203 35.9913 11.6267 35.0123 12.6057C34.297 13.321 33.3249 13.4451 32.4907 13.3348C31.4772 13.2003 30.8361 13.3348 30.5 13.6709L30.0915 14.0794L35.4311 18.5813C35.8249 18.9054 36.1465 19.3082 36.3753 19.764C36.6041 20.2197 36.7351 20.7183 36.7598 21.2276C36.7844 21.737 36.7023 22.2459 36.5186 22.7216C36.3349 23.1973 36.0537 23.6293 35.6931 23.9899L31.5651 28.1179C31.3366 28.3464 31.0266 28.4748 30.7034 28.4748C30.3801 28.4748 30.0701 28.3464 29.8416 28.1179L29.1832 27.4595C27.9836 26.2599 28.0025 24.5656 28.1542 23.4246C28.1747 23.2913 28.1729 23.1556 28.149 23.023L28.1266 22.9592L28.118 22.9471L28.1128 22.942L28.0904 22.9299C28.0412 22.912 27.9894 22.9021 27.937 22.9006C27.6646 22.8942 27.3934 22.9386 27.1373 23.0316C26.4117 23.2746 25.5154 23.8262 24.6709 24.6707C23.8263 25.5153 23.2713 26.415 23.0335 27.1354C22.9397 27.392 22.8947 27.6638 22.9007 27.9369C22.9026 27.9899 22.9131 28.0423 22.9318 28.092L22.9438 28.1144L22.9473 28.1179L22.9593 28.1265L23.0231 28.1489C23.0972 28.1678 23.2265 28.1799 23.4247 28.1541C24.5657 28.0024 26.26 27.9834 27.4596 29.183L28.118 29.8414C28.3466 30.07 28.475 30.38 28.475 30.7032C28.475 31.0265 28.3466 31.3364 28.118 31.565L23.99 35.693C23.6295 36.0536 23.1974 36.3347 22.7217 36.5184C22.246 36.7021 21.7371 36.7843 21.2277 36.7596C20.7184 36.7349 20.2198 36.604 19.7641 36.3752C19.3084 36.1464 18.9055 35.8247 18.5815 35.431L14.0812 30.0896L13.671 30.4998C13.3349 30.8359 13.2005 31.4771 13.3349 32.4906C13.4452 33.3248 13.3211 34.2969 12.6058 35.0122C11.6269 35.9911 10.2032 35.8739 9.13112 35.5154C7.97978 35.1328 6.76811 34.3451 5.71155 33.2886C4.655 32.232 3.86733 31.0204 3.4847 29.869C3.1262 28.7969 3.00899 27.3733 3.98798 26.3943C4.70326 25.679 5.67536 25.5549 6.50957 25.6652C7.52303 25.7997 8.1642 25.6652 8.5003 25.3291L8.91051 24.9189L3.56915 20.4187Z" fill="#162521"/>
</g>
<path d="M54.2505 31V14.456H47.6905V8.6H68.3625V14.456H61.8025V31H54.2505ZM78.014 31.32C75.8807 31.32 74.014 30.9253 72.414 30.136C70.8353 29.3467 69.6087 28.2693 68.734 26.904C67.8593 25.5173 67.422 23.96 67.422 22.232C67.422 20.4613 67.8487 18.8933 68.702 17.528C69.5767 16.1627 70.7607 15.096 72.254 14.328C73.7687 13.56 75.4647 13.176 77.342 13.176C79.07 13.176 80.6593 13.5173 82.11 14.2C83.582 14.8827 84.7553 15.896 85.63 17.24C86.526 18.584 86.974 20.248 86.974 22.232C86.974 22.488 86.9633 22.776 86.942 23.096C86.9207 23.3947 86.8993 23.672 86.878 23.928H73.406V20.44H83.038L80.318 21.368C80.318 20.6853 80.19 20.1093 79.934 19.64C79.6993 19.1493 79.3687 18.776 78.942 18.52C78.5153 18.2427 78.0033 18.104 77.406 18.104C76.8087 18.104 76.286 18.2427 75.838 18.52C75.4113 18.776 75.0807 19.1493 74.846 19.64C74.6113 20.1093 74.494 20.6853 74.494 21.368V22.456C74.494 23.2027 74.6433 23.8427 74.942 24.376C75.2407 24.9093 75.6673 25.3147 76.222 25.592C76.7767 25.848 77.4487 25.976 78.238 25.976C79.0487 25.976 79.71 25.8693 80.222 25.656C80.7553 25.4427 81.31 25.1227 81.886 24.696L85.662 28.504C84.8087 29.4213 83.7527 30.1253 82.494 30.616C81.2567 31.0853 79.7633 31.32 78.014 31.32ZM99.3795 31V27.896L98.8675 27.064V21.176C98.8675 20.3227 98.6008 19.672 98.0675 19.224C97.5555 18.776 96.7128 18.552 95.5395 18.552C94.7502 18.552 93.9502 18.68 93.1395 18.936C92.3288 19.1707 91.6355 19.5013 91.0595 19.928L88.7555 15.16C89.7795 14.52 91.0062 14.0293 92.4355 13.688C93.8648 13.3467 95.2622 13.176 96.6275 13.176C99.6355 13.176 101.961 13.848 103.604 15.192C105.268 16.536 106.1 18.6693 106.1 21.592V31H99.3795ZM94.4195 31.32C92.9902 31.32 91.7955 31.0747 90.8355 30.584C89.8755 30.0933 89.1502 29.4427 88.6595 28.632C88.1688 27.8 87.9235 26.8827 87.9235 25.88C87.9235 24.7493 88.2115 23.7893 88.7875 23C89.3635 22.2107 90.2382 21.6133 91.4115 21.208C92.6062 20.8027 94.1102 20.6 95.9235 20.6H99.5715V24.088H97.0755C96.3075 24.088 95.7422 24.216 95.3795 24.472C95.0382 24.7067 94.8675 25.0693 94.8675 25.56C94.8675 25.9653 95.0168 26.3067 95.3155 26.584C95.6355 26.84 96.0622 26.968 96.5955 26.968C97.0862 26.968 97.5342 26.84 97.9395 26.584C98.3662 26.3067 98.6755 25.88 98.8675 25.304L99.7955 27.448C99.5182 28.7493 98.9315 29.72 98.0355 30.36C97.1395 31 95.9342 31.32 94.4195 31.32ZM132.393 13.176C133.716 13.176 134.9 13.4533 135.945 14.008C137.012 14.5413 137.844 15.384 138.441 16.536C139.06 17.688 139.369 19.1813 139.369 21.016V31H132.137V22.264C132.137 21.176 131.956 20.408 131.593 19.96C131.23 19.4907 130.761 19.256 130.185 19.256C129.758 19.256 129.374 19.3627 129.033 19.576C128.692 19.7893 128.414 20.1307 128.201 20.6C128.009 21.048 127.913 21.6667 127.913 22.456V31H120.681V22.264C120.681 21.176 120.51 20.408 120.169 19.96C119.828 19.4907 119.348 19.256 118.729 19.256C118.302 19.256 117.918 19.3627 117.577 19.576C117.236 19.7893 116.958 20.1307 116.745 20.6C116.553 21.048 116.457 21.6667 116.457 22.456V31H109.225V13.496H116.105V18.52L114.697 17.112C115.358 15.7893 116.244 14.808 117.353 14.168C118.462 13.5067 119.7 13.176 121.065 13.176C122.601 13.176 123.956 13.5813 125.129 14.392C126.324 15.1813 127.124 16.44 127.529 18.168L125.321 17.816C125.961 16.3653 126.889 15.2347 128.105 14.424C129.342 13.592 130.772 13.176 132.393 13.176ZM152.067 31.32C150.083 31.32 148.323 30.936 146.787 30.168C145.272 29.3787 144.077 28.3013 143.203 26.936C142.328 25.5707 141.891 24.0027 141.891 22.232C141.891 20.4613 142.328 18.8933 143.203 17.528C144.077 16.1627 145.272 15.096 146.787 14.328C148.323 13.56 150.083 13.176 152.067 13.176C154.051 13.176 155.811 13.56 157.347 14.328C158.883 15.096 160.077 16.1627 160.931 17.528C161.805 18.8933 162.243 20.4613 162.243 22.232C162.243 24.0027 161.805 25.5707 160.931 26.936C160.077 28.3013 158.883 29.3787 157.347 30.168C155.811 30.936 154.051 31.32 152.067 31.32ZM152.067 25.688C152.6 25.688 153.08 25.56 153.507 25.304C153.933 25.048 154.275 24.664 154.531 24.152C154.787 23.6187 154.915 22.9787 154.915 22.232C154.915 21.464 154.787 20.8347 154.531 20.344C154.275 19.832 153.933 19.448 153.507 19.192C153.08 18.936 152.6 18.808 152.067 18.808C151.533 18.808 151.053 18.936 150.627 19.192C150.2 19.448 149.859 19.832 149.603 20.344C149.347 20.8347 149.219 21.464 149.219 22.232C149.219 22.9787 149.347 23.6187 149.603 24.152C149.859 24.664 150.2 25.048 150.627 25.304C151.053 25.56 151.533 25.688 152.067 25.688ZM173.754 31.32C171.77 31.32 170.01 30.936 168.474 30.168C166.96 29.3787 165.765 28.3013 164.89 26.936C164.016 25.5707 163.578 24.0027 163.578 22.232C163.578 20.4613 164.016 18.8933 164.89 17.528C165.765 16.1627 166.96 15.096 168.474 14.328C170.01 13.56 171.77 13.176 173.754 13.176C175.738 13.176 177.498 13.56 179.034 14.328C180.57 15.096 181.765 16.1627 182.618 17.528C183.493 18.8933 183.93 20.4613 183.93 22.232C183.93 24.0027 183.493 25.5707 182.618 26.936C181.765 28.3013 180.57 29.3787 179.034 30.168C177.498 30.936 175.738 31.32 173.754 31.32ZM173.754 25.688C174.288 25.688 174.768 25.56 175.194 25.304C175.621 25.048 175.962 24.664 176.218 24.152C176.474 23.6187 176.602 22.9787 176.602 22.232C176.602 21.464 176.474 20.8347 176.218 20.344C175.962 19.832 175.621 19.448 175.194 19.192C174.768 18.936 174.288 18.808 173.754 18.808C173.221 18.808 172.741 18.936 172.314 19.192C171.888 19.448 171.546 19.832 171.29 20.344C171.034 20.8347 170.906 21.464 170.906 22.232C170.906 22.9787 171.034 23.6187 171.29 24.152C171.546 24.664 171.888 25.048 172.314 25.304C172.741 25.56 173.221 25.688 173.754 25.688ZM197.874 31.32C196.359 31.32 195.1 31 194.098 30.36C193.116 29.6987 192.391 28.7067 191.922 27.384C191.452 26.04 191.218 24.3333 191.218 22.264C191.218 20.152 191.431 18.4347 191.858 17.112C192.306 15.768 193.02 14.776 194.002 14.136C194.983 13.496 196.274 13.176 197.874 13.176C199.41 13.176 200.818 13.5493 202.098 14.296C203.378 15.0213 204.402 16.0667 205.17 17.432C205.938 18.776 206.322 20.3867 206.322 22.264C206.322 24.1413 205.938 25.7627 205.17 27.128C204.402 28.472 203.378 29.5067 202.098 30.232C200.818 30.9573 199.41 31.32 197.874 31.32ZM186.194 37.208V13.496H193.074V15.864L193.106 22.264L193.426 28.664V37.208H186.194ZM196.146 25.688C196.679 25.688 197.159 25.56 197.586 25.304C198.012 25.048 198.354 24.664 198.61 24.152C198.866 23.64 198.994 23.0107 198.994 22.264C198.994 21.496 198.866 20.856 198.61 20.344C198.354 19.832 198.012 19.448 197.586 19.192C197.159 18.936 196.679 18.808 196.146 18.808C195.612 18.808 195.132 18.936 194.706 19.192C194.279 19.448 193.938 19.832 193.682 20.344C193.426 20.856 193.298 21.496 193.298 22.264C193.298 23.0107 193.426 23.64 193.682 24.152C193.938 24.664 194.279 25.048 194.706 25.304C195.132 25.56 195.612 25.688 196.146 25.688Z" fill="#162521"/>
<defs>
<clipPath id="clip0_756_1516">
<rect width="39" height="39" fill="white"/>
</clipPath>
</defs>
</svg>
