<svg width="1280" height="832" viewBox="0 0 1280 832" fill="none" xmlns="http://www.w3.org/2000/svg">
<g clip-path="url(#clip0_756_756)">
<path d="M427 -11H0V416H427V-11Z" fill="#ECFBFE"/>
<path d="M55.1191 -3.03939L83.3681 58.4205L93.5277 53.7456L65.2839 -7.71423L55.1191 -3.03939ZM131.921 309.181L71.4965 158.345L57.4924 163.953L117.917 314.799L131.921 309.181ZM299.006 217.206L304.89 296.838L315.419 296.058L309.534 216.427L299.006 217.206ZM388.197 354.699L297.54 396.373L302.901 408.034L393.559 366.361L388.197 354.699ZM278.645 181.755L326.24 106.558L315.388 99.6944L267.799 174.892L278.645 181.755Z" fill="#B06458"/>
<path d="M321.509 25.4914L405.697 59.2611L410.361 47.6252L326.178 13.8453L321.509 25.4914ZM383.343 280.486L480.489 352.977L488.168 342.689L391.021 270.198L383.343 280.486ZM269.301 312.651L181.155 246.87L175.215 254.836L263.36 320.612L269.301 312.651ZM118.214 149.831L142.767 36.6506L153.47 38.9675L128.917 152.148L118.214 149.831ZM-43.6523 280.486L53.4942 352.977L61.1729 342.689L-35.9737 270.198L-43.6523 280.486Z" fill="#8EAE5A"/>
<path d="M215.499 -31.8933L244.912 68.3955L257.23 64.7817L227.822 -35.502L215.499 -31.8933ZM364.587 204.996L492.089 104.251L482.734 92.4104L355.237 193.155L364.587 204.996ZM160.36 174.061L223.255 151.876L226.392 160.775L163.502 182.96L160.36 174.061ZM257.23 491.782L227.822 391.488L215.499 395.102L244.912 495.395L257.23 491.782ZM55.7345 92.4156L-71.7627 193.155L-62.4079 204.996L65.0893 104.251L55.7345 92.4156ZM134.351 409.07L179.782 330.387L191.387 337.086L145.961 415.769L134.351 409.07Z" fill="#58A4B0"/>
</g>
<g clip-path="url(#clip1_756_756)">
<path d="M853 -11H427V416H853V-11Z" fill="#ECFBFE"/>
<path d="M481.99 -3.03939L510.173 58.4205L520.309 53.7456L492.131 -7.71423L481.99 -3.03939ZM558.612 309.181L498.329 158.345L484.358 163.953L544.641 314.799L558.612 309.181ZM725.306 217.206L731.176 296.838L741.68 296.058L735.81 216.427L725.306 217.206ZM814.288 354.699L723.843 396.373L729.192 408.034L819.637 366.361L814.288 354.699ZM704.993 181.755L752.476 106.558L741.65 99.6944L694.172 174.892L704.993 181.755Z" fill="#B06458"/>
<path d="M747.756 25.4914L831.747 59.2611L836.401 47.6252L752.415 13.8453L747.756 25.4914ZM809.445 280.486L906.364 352.977L914.025 342.689L817.106 270.198L809.445 280.486ZM695.671 312.651L607.732 246.87L601.804 254.836L689.743 320.612L695.671 312.651ZM544.938 149.831L569.433 36.6506L580.111 38.9675L555.616 152.148L544.938 149.831ZM383.45 280.486L480.369 352.977L488.03 342.689L391.111 270.198L383.45 280.486Z" fill="#8EAE5A"/>
<path d="M641.995 -31.8933L671.338 68.3955L683.627 64.7817L654.288 -35.502L641.995 -31.8933ZM790.733 204.996L917.937 104.251L908.604 92.4104L781.405 193.155L790.733 204.996ZM586.984 174.061L649.732 151.876L652.862 160.775L590.119 182.96L586.984 174.061ZM683.627 491.782L654.288 391.488L641.995 395.102L671.338 495.395L683.627 491.782ZM482.604 92.4156L355.405 193.155L364.738 204.996L491.937 104.251L482.604 92.4156ZM561.036 409.07L606.361 330.387L617.939 337.086L572.619 415.769L561.036 409.07Z" fill="#58A4B0"/>
</g>
<g clip-path="url(#clip2_756_756)">
<path d="M1280 -11H853V416H1280V-11Z" fill="#ECFBFE"/>
<path d="M908.119 -3.03939L936.368 58.4205L946.528 53.7456L918.284 -7.71423L908.119 -3.03939ZM984.921 309.181L924.496 158.345L910.492 163.953L970.917 314.799L984.921 309.181ZM1152.01 217.206L1157.89 296.838L1168.42 296.058L1162.53 216.427L1152.01 217.206ZM1241.2 354.699L1150.54 396.373L1155.9 408.034L1246.56 366.361L1241.2 354.699ZM1131.65 181.755L1179.24 106.558L1168.39 99.6944L1120.8 174.892L1131.65 181.755Z" fill="#B06458"/>
<path d="M1174.51 25.4914L1258.7 59.2611L1263.36 47.6252L1179.18 13.8453L1174.51 25.4914ZM1236.34 280.486L1333.49 352.977L1341.17 342.689L1244.02 270.198L1236.34 280.486ZM1122.3 312.651L1034.16 246.87L1028.21 254.836L1116.36 320.612L1122.3 312.651ZM971.214 149.831L995.767 36.6506L1006.47 38.9675L981.917 152.148L971.214 149.831ZM809.348 280.486L906.494 352.977L914.173 342.689L817.026 270.198L809.348 280.486Z" fill="#8EAE5A"/>
<path d="M1068.5 -31.8933L1097.91 68.3955L1110.23 64.7817L1080.82 -35.502L1068.5 -31.8933ZM1217.59 204.996L1345.09 104.251L1335.73 92.4104L1208.24 193.155L1217.59 204.996ZM1013.36 174.061L1076.25 151.876L1079.39 160.775L1016.5 182.96L1013.36 174.061ZM1110.23 491.782L1080.82 391.488L1068.5 395.102L1097.91 495.395L1110.23 491.782ZM908.734 92.4156L781.237 193.155L790.592 204.996L918.089 104.251L908.734 92.4156ZM987.351 409.07L1032.78 330.387L1044.39 337.086L998.961 415.769L987.351 409.07Z" fill="#58A4B0"/>
</g>
<g clip-path="url(#clip3_756_756)">
<path d="M427 416H0V843H427V416Z" fill="#ECFBFE"/>
<path d="M55.1191 423.961L83.3681 485.42L93.5277 480.746L65.2839 419.286L55.1191 423.961ZM131.921 736.181L71.4965 585.345L57.4924 590.953L117.917 741.799L131.921 736.181ZM299.006 644.206L304.89 723.838L315.419 723.058L309.534 643.427L299.006 644.206ZM388.197 781.699L297.54 823.373L302.901 835.034L393.559 793.361L388.197 781.699ZM278.645 608.755L326.24 533.558L315.388 526.694L267.799 601.892L278.645 608.755Z" fill="#B06458"/>
<path d="M321.509 452.491L405.697 486.261L410.361 474.625L326.178 440.845L321.509 452.491ZM383.343 707.486L480.489 779.977L488.168 769.689L391.021 697.198L383.343 707.486ZM269.301 739.651L181.155 673.87L175.215 681.836L263.36 747.612L269.301 739.651ZM118.214 576.831L142.767 463.651L153.47 465.968L128.917 579.148L118.214 576.831ZM-43.6523 707.486L53.4942 779.977L61.1729 769.689L-35.9737 697.198L-43.6523 707.486Z" fill="#8EAE5A"/>
<path d="M215.499 395.107L244.912 495.395L257.23 491.782L227.822 391.498L215.499 395.107ZM364.587 631.996L492.089 531.251L482.734 519.41L355.237 620.155L364.587 631.996ZM160.36 601.061L223.255 578.876L226.392 587.775L163.502 609.96L160.36 601.061ZM257.23 918.782L227.822 818.488L215.499 822.102L244.912 922.395L257.23 918.782ZM55.7345 519.416L-71.7627 620.155L-62.4079 631.996L65.0893 531.251L55.7345 519.416ZM134.351 836.07L179.782 757.387L191.387 764.086L145.961 842.769L134.351 836.07Z" fill="#58A4B0"/>
</g>
<g clip-path="url(#clip4_756_756)">
<path d="M853 416H427V843H853V416Z" fill="#ECFBFE"/>
<path d="M481.99 423.961L510.173 485.42L520.309 480.746L492.131 419.286L481.99 423.961ZM558.612 736.181L498.329 585.345L484.358 590.953L544.641 741.799L558.612 736.181ZM725.306 644.206L731.176 723.838L741.68 723.058L735.81 643.427L725.306 644.206ZM814.288 781.699L723.843 823.373L729.192 835.034L819.637 793.361L814.288 781.699ZM704.993 608.755L752.476 533.558L741.65 526.694L694.172 601.892L704.993 608.755Z" fill="#B06458"/>
<path d="M747.756 452.491L831.747 486.261L836.401 474.625L752.415 440.845L747.756 452.491ZM809.445 707.486L906.364 779.977L914.025 769.689L817.106 697.198L809.445 707.486ZM695.671 739.651L607.732 673.87L601.804 681.836L689.743 747.612L695.671 739.651ZM544.938 576.831L569.433 463.651L580.111 465.968L555.616 579.148L544.938 576.831ZM383.45 707.486L480.369 779.977L488.03 769.689L391.111 697.198L383.45 707.486Z" fill="#8EAE5A"/>
<path d="M641.995 395.107L671.338 495.395L683.627 491.782L654.288 391.498L641.995 395.107ZM790.733 631.996L917.937 531.251L908.604 519.41L781.405 620.155L790.733 631.996ZM586.984 601.061L649.732 578.876L652.862 587.775L590.119 609.96L586.984 601.061ZM683.627 918.782L654.288 818.488L641.995 822.102L671.338 922.395L683.627 918.782ZM482.604 519.416L355.405 620.155L364.738 631.996L491.937 531.251L482.604 519.416ZM561.036 836.07L606.361 757.387L617.939 764.086L572.619 842.769L561.036 836.07Z" fill="#58A4B0"/>
</g>
<g clip-path="url(#clip5_756_756)">
<path d="M1280 416H853V843H1280V416Z" fill="#ECFBFE"/>
<path d="M908.119 423.961L936.368 485.42L946.528 480.746L918.284 419.286L908.119 423.961ZM984.921 736.181L924.496 585.345L910.492 590.953L970.917 741.799L984.921 736.181ZM1152.01 644.206L1157.89 723.838L1168.42 723.058L1162.53 643.427L1152.01 644.206ZM1241.2 781.699L1150.54 823.373L1155.9 835.034L1246.56 793.361L1241.2 781.699ZM1131.65 608.755L1179.24 533.558L1168.39 526.694L1120.8 601.892L1131.65 608.755Z" fill="#B06458"/>
<path d="M1174.51 452.491L1258.7 486.261L1263.36 474.625L1179.18 440.845L1174.51 452.491ZM1236.34 707.486L1333.49 779.977L1341.17 769.689L1244.02 697.198L1236.34 707.486ZM1122.3 739.651L1034.16 673.87L1028.21 681.836L1116.36 747.612L1122.3 739.651ZM971.214 576.831L995.767 463.651L1006.47 465.968L981.917 579.148L971.214 576.831ZM809.348 707.486L906.494 779.977L914.173 769.689L817.026 697.198L809.348 707.486Z" fill="#8EAE5A"/>
<path d="M1068.5 395.107L1097.91 495.395L1110.23 491.782L1080.82 391.498L1068.5 395.107ZM1217.59 631.996L1345.09 531.251L1335.73 519.41L1208.24 620.155L1217.59 631.996ZM1013.36 601.061L1076.25 578.876L1079.39 587.775L1016.5 609.96L1013.36 601.061ZM1110.23 918.782L1080.82 818.488L1068.5 822.102L1097.91 922.395L1110.23 918.782ZM908.734 519.416L781.237 620.155L790.592 631.996L918.089 531.251L908.734 519.416ZM987.351 836.07L1032.78 757.387L1044.39 764.086L998.961 842.769L987.351 836.07Z" fill="#58A4B0"/>
</g>
<defs>
<clipPath id="clip0_756_756">
<rect width="427" height="427" fill="white" transform="translate(0 -11)"/>
</clipPath>
<clipPath id="clip1_756_756">
<rect width="426" height="427" fill="white" transform="translate(427 -11)"/>
</clipPath>
<clipPath id="clip2_756_756">
<rect width="427" height="427" fill="white" transform="translate(853 -11)"/>
</clipPath>
<clipPath id="clip3_756_756">
<rect width="427" height="427" fill="white" transform="translate(0 416)"/>
</clipPath>
<clipPath id="clip4_756_756">
<rect width="426" height="427" fill="white" transform="translate(427 416)"/>
</clipPath>
<clipPath id="clip5_756_756">
<rect width="427" height="427" fill="white" transform="translate(853 416)"/>
</clipPath>
</defs>
</svg>
